<svg xmlns="http://www.w3.org/2000/svg" id="master-artboard" width="50" height="50" x="0" y="0" version="1.1" viewBox="0 0 512 512" style="enable-background:new 0 0 1400 980"><g transform="matrix(1.9140625, 0, 0, 1.9140625, -243.16387939453125, -234.05300888928662)"><rect id="ee-background" width="512" height="512" x="0" y="0" style="fill:#eaffe6;fill-opacity:0;pointer-events:none"/><path d="M839.4,611.1c-1-0.1-2.1,0.2-3.2,0.3c-1.1,0.1-1.4,0.4-0.8,1.6c2.2,3.8,4.1,7.7,5.7,11.7	c1.8,4.4,3.4,8.8,4.4,13.4c0.3,1.2,0,2.3-1.4,2.7c-1.2,0.4-2.1-0.3-2.6-1.8c-0.2-0.8-0.4-1.7-0.7-2.5c-2.2-7.8-5.5-15.2-9.5-22.2	c-0.3-0.6-0.6-1-1.4-0.5c-5.7,3-9.4,9.8-8.5,16.1c1.2,8.1,5.7,14.1,12.7,18.1c5.6,3.2,11.5,6,16.6,10.1c0.7,0.6,1,0.4,1.1-0.5	c0.5-5.7,1.9-11.2,3.6-16.6c2-6.1,1.9-12.2-0.4-18.3C852.5,615.5,846.6,611.1,839.4,611.1z" class="st4" transform="matrix(1.6687877184269022, -0.9628637104434798, 0.9628529816047712, 1.668785691868917, -1769.3542790130605, 101.13904169982098)" style="fill:#43b155"/><path d="M885,591.7c2.6,0,5.3,0,7.9,0c0.5,0,1.1,0.3,1.3-0.2c0.1-0.5-0.6-0.7-0.9-0.9c-8.8-6.1-17.7-12.2-26.6-18.4	c-13.4-9.3-26.9-18.6-40.3-27.9c-1-0.7-1.5-0.6-2.2,0.4c-1.3,2.1-2.8,4.1-4.3,6c-0.9,1.2-0.8,1.7,0.4,2.5	c16.4,11.2,32.8,22.4,49,33.9c4.6,3.3,9.2,5.4,14.9,4.5C884.5,591.6,884.7,591.7,885,591.7z" class="st2" transform="matrix(-0.10376705974340439, 2.2184784412384033, -2.218452215194702, -0.10376736521720886, 1607.850140314746, -1590.400311993931)" style="fill:#6b3d34"/><path d="M542,419.7c-0.2,4.2-1,8.4-2.3,12.4c-3.2,9.8-10,15.9-19.7,19c-3.8,1.2-7.7,1.9-11.6,2.2	c-0.7,0-1.2,0.1-1.2-0.9c0.1-9.4,1.9-18.3,8.3-25.7c4.5-5.1,10.5-7.8,17-9.4c2.6-0.7,5.3-1,7.9-1.3c1.2-0.1,1.8,0.1,1.7,1.5	C541.9,418.3,542,419.1,542,419.7z" class="st4" transform="matrix(1.549944996833801, 0.8244820833206176, -0.8244723677635193, 1.549944996833801, -244.49927602477737, -863.8576752447491)" style="fill:#43b155"/><path d="M837.2,736.4c-0.1,6.2-1.6,12-4.1,17.7c-0.3,0.7-0.5,1.1-1.4,0.6c-7.7-4.2-14.3-9.6-18-17.8	c-3.2-7-2.6-14.3-0.7-21.5c0.7-2.6,1.6-5.1,2.7-7.5c0.3-0.6,0.5-1,1.3-0.6c9,5,16.4,11.2,19.4,21.6	C837,731.2,837.3,733.8,837.2,736.4z" class="st4" transform="matrix(2.337978601455688, -0.7806971669197083, 0.7806875705718993, 2.337978601455688, -2280.1318359374995, -886.3543459985283)" style="fill:#43b155"/><path d="M476.1,522.8c5,0.4,4.8-0.8,3.4,4.3c-1.8,6.5-5.4,11.6-12.2,13.7c-3.4,1-6.8,1.3-10.3,0.9c-1-0.1-1.2-0.5-1-1.4	c2.1-10.1,7.6-17,19-17.4C475.3,522.9,475.8,522.9,476.1,522.8z" class="st2" transform="matrix(1.2658737897872925, 0, 0, 1.2658737897872925, -607.2699890136719, -526.2652435302734)" style="fill:#6b3d34"/><path d="M 199.12698364257812 459.746826171875 L 300.3833923339844 406.62841796875" transform="matrix(1, 0, 0, 1, 23.616912841796875, -11.808517456054688)" style="fill:#43b155;fill-opacity:1;stroke:#000;stroke-opacity:1;stroke-width:0;paint-order:fill"/><path d="M 251.88804626464844 240.194091796875 L 251.88804626464844 240.194091796875 L 305.6565856933594 249.7337188720703" transform="matrix(0.6552770330373121, 0, 0, 0.655277033037312, 51.38086908844086, 8.654094514640104)" style="fill:#6b3d34;fill-opacity:1;stroke:#000;stroke-opacity:1;stroke-width:0;paint-order:fill"/></g></svg>